ply
format ascii 1.0
comment Created by Blender 2.68 (sub 0) - www.blender.org, source file: 'cone.blend'
element vertex 128
property float x
property float y
property float z
property float nx
property float ny
property float nz
property float s
property float t
element face 62
property list uchar uint vertex_indices
end_header
-0.382682 0.923880 -1.000000 -0.259887 0.856737 0.445488 0.185496 0.395437
0.000000 0.000000 1.000000 -0.259887 0.856737 0.445488 0.514312 0.000117
-0.195089 0.980786 -1.000000 -0.259887 0.856737 0.445488 0.221384 0.422717
0.000000 1.000000 -1.000000 0.087754 0.890977 0.445488 0.259523 0.446749
0.000000 0.000000 1.000000 0.087754 0.890977 0.445488 0.514312 0.000117
0.195090 0.980785 -1.000000 0.087754 0.890977 0.445488 0.299621 0.467349
0.000000 0.000000 1.000000 -0.087753 0.890977 0.445488 0.514312 0.000117
0.000000 1.000000 -1.000000 -0.087753 0.890977 0.445488 0.259523 0.446749
-0.195089 0.980786 -1.000000 -0.087753 0.890977 0.445488 0.221384 0.422717
0.195090 0.980785 -1.000000 0.259888 0.856737 0.445488 0.299621 0.467349
0.000000 0.000000 1.000000 0.259888 0.856737 0.445488 0.514312 0.000117
0.382683 0.923880 -1.000000 0.259888 0.856737 0.445488 0.341368 0.484357
-0.555569 0.831470 -1.000000 -0.422035 0.789574 0.445488 0.152136 0.365118
0.000000 0.000000 1.000000 -0.422035 0.789574 0.445488 0.514312 0.000117
-0.382682 0.923880 -1.000000 -0.422035 0.789574 0.445488 0.185496 0.395437
-0.707106 0.707108 -1.000000 -0.567964 0.692067 0.445488 0.121559 0.331994
0.000000 0.000000 1.000000 -0.567964 0.692067 0.445488 0.514312 0.000117
-0.555569 0.831470 -1.000000 -0.567964 0.692067 0.445488 0.152136 0.365118
-0.831469 0.555571 -1.000000 -0.692066 0.567965 0.445488 0.094001 0.296319
0.000000 0.000000 1.000000 -0.692066 0.567965 0.445488 0.514312 0.000117
-0.707106 0.707108 -1.000000 -0.692066 0.567965 0.445488 0.121559 0.331994
-0.923879 0.382684 -1.000000 -0.789573 0.422037 0.445488 0.069673 0.258367
0.000000 0.000000 1.000000 -0.789573 0.422037 0.445488 0.514312 0.000117
-0.831469 0.555571 -1.000000 -0.789573 0.422037 0.445488 0.094001 0.296319
-0.980785 0.195091 -1.000000 -0.856737 0.259889 0.445488 0.048763 0.218431
0.000000 0.000000 1.000000 -0.856737 0.259889 0.445488 0.514312 0.000117
-0.923879 0.382684 -1.000000 -0.856737 0.259889 0.445488 0.069673 0.258367
-1.000000 0.000001 -1.000000 -0.890977 0.087754 0.445488 0.031432 0.176817
0.000000 0.000000 1.000000 -0.890977 0.087754 0.445488 0.514312 0.000117
-0.980785 0.195091 -1.000000 -0.890977 0.087754 0.445488 0.048763 0.218431
-0.980785 -0.195089 -1.000000 -0.890977 -0.087753 0.445488 0.017811 0.133844
0.000000 0.000000 1.000000 -0.890977 -0.087753 0.445488 0.514312 0.000117
-1.000000 0.000001 -1.000000 -0.890977 -0.087753 0.445488 0.031432 0.176817
-0.923880 -0.382683 -1.000000 -0.856737 -0.259887 0.445488 0.008007 0.089844
0.000000 0.000000 1.000000 -0.856737 -0.259887 0.445488 0.514312 0.000117
-0.980785 -0.195089 -1.000000 -0.856737 -0.259887 0.445488 0.017811 0.133844
-0.831470 -0.555570 -1.000000 -0.789574 -0.422035 0.445488 0.002094 0.045154
0.000000 0.000000 1.000000 -0.789574 -0.422035 0.445488 0.514312 0.000117
-0.923880 -0.382683 -1.000000 -0.789574 -0.422035 0.445488 0.008007 0.089844
-0.707107 -0.707106 -1.000000 -0.692067 -0.567964 0.445488 0.000117 0.000118
0.000000 0.000000 1.000000 -0.692067 -0.567964 0.445488 0.514312 0.000117
-0.831470 -0.555570 -1.000000 -0.692067 -0.567964 0.445488 0.002094 0.045154
-0.555571 -0.831469 -1.000000 -0.567965 -0.692066 0.445488 0.983199 0.211173
0.000000 0.000000 1.000000 -0.567965 -0.692066 0.445488 0.514312 0.000117
-0.707107 -0.707106 -1.000000 -0.567965 -0.692066 0.445488 0.999882 0.169294
-0.382684 -0.923879 -1.000000 -0.422036 -0.789573 0.445488 0.962912 0.251430
0.000000 0.000000 1.000000 -0.422036 -0.789573 0.445488 0.514312 0.000117
-0.555571 -0.831469 -1.000000 -0.422036 -0.789573 0.445488 0.983199 0.211173
-0.195091 -0.980785 -1.000000 -0.259889 -0.856737 0.445488 0.939177 0.289755
0.000000 0.000000 1.000000 -0.259889 -0.856737 0.445488 0.514312 0.000117
-0.382684 -0.923879 -1.000000 -0.259889 -0.856737 0.445488 0.962912 0.251430
-0.000000 -1.000000 -1.000000 -0.087754 -0.890977 0.445488 0.912176 0.325854
0.000000 0.000000 1.000000 -0.087754 -0.890977 0.445488 0.514312 0.000117
-0.195091 -0.980785 -1.000000 -0.087754 -0.890977 0.445488 0.939177 0.289755
0.195090 -0.980785 -1.000000 0.087753 -0.890977 0.445488 0.882117 0.359449
0.000000 0.000000 1.000000 0.087753 -0.890977 0.445488 0.514312 0.000117
-0.000000 -1.000000 -1.000000 0.087753 -0.890977 0.445488 0.912176 0.325854
0.382683 -0.923880 -1.000000 0.259888 -0.856737 0.445488 0.849231 0.390283
0.000000 0.000000 1.000000 0.259888 -0.856737 0.445488 0.514312 0.000117
0.195090 -0.980785 -1.000000 0.259888 -0.856737 0.445488 0.882117 0.359449
0.555570 -0.831470 -1.000000 0.422036 -0.789573 0.445488 0.813771 0.418117
0.000000 0.000000 1.000000 0.422036 -0.789573 0.445488 0.514312 0.000117
0.382683 -0.923880 -1.000000 0.422036 -0.789573 0.445488 0.849231 0.390283
0.707107 -0.707107 -1.000000 0.567965 -0.692067 0.445488 0.776009 0.442739
0.000000 0.000000 1.000000 0.567965 -0.692067 0.445488 0.514312 0.000117
0.555570 -0.831470 -1.000000 0.567965 -0.692067 0.445488 0.813771 0.418117
0.831470 -0.555570 -1.000000 0.692067 -0.567965 0.445488 0.736236 0.463959
0.000000 0.000000 1.000000 0.692067 -0.567965 0.445488 0.514312 0.000117
0.707107 -0.707107 -1.000000 0.692067 -0.567965 0.445488 0.776009 0.442739
0.923880 -0.382683 -1.000000 0.789573 -0.422035 0.445488 0.694757 0.481614
0.000000 0.000000 1.000000 0.789573 -0.422035 0.445488 0.514312 0.000117
0.831470 -0.555570 -1.000000 0.789573 -0.422035 0.445488 0.736236 0.463959
0.980785 -0.195090 -1.000000 0.856737 -0.259888 0.445488 0.651891 0.495568
0.000000 0.000000 1.000000 0.856737 -0.259888 0.445488 0.514312 0.000117
0.923880 -0.382683 -1.000000 0.856737 -0.259888 0.445488 0.694757 0.481614
1.000000 0.000000 -1.000000 0.890977 -0.087753 0.445488 0.607968 0.505714
0.000000 0.000000 1.000000 0.890977 -0.087753 0.445488 0.514312 0.000117
0.980785 -0.195090 -1.000000 0.890977 -0.087753 0.445488 0.651891 0.495568
0.980785 0.195090 -1.000000 0.890977 0.087754 0.445488 0.563325 0.511973
0.000000 0.000000 1.000000 0.890977 0.087754 0.445488 0.514312 0.000117
1.000000 0.000000 -1.000000 0.890977 0.087754 0.445488 0.607968 0.505714
0.923880 0.382683 -1.000000 0.856737 0.259888 0.445488 0.518305 0.514299
0.000000 0.000000 1.000000 0.856737 0.259888 0.445488 0.514312 0.000117
0.980785 0.195090 -1.000000 0.856737 0.259888 0.445488 0.563325 0.511973
0.831470 0.555570 -1.000000 0.789573 0.422036 0.445488 0.473255 0.512672
0.000000 0.000000 1.000000 0.789573 0.422036 0.445488 0.514312 0.000117
0.923880 0.382683 -1.000000 0.789573 0.422036 0.445488 0.518305 0.514299
0.707107 0.707107 -1.000000 0.692067 0.567965 0.445488 0.428520 0.507106
0.000000 0.000000 1.000000 0.692067 0.567965 0.445488 0.514312 0.000117
0.831470 0.555570 -1.000000 0.692067 0.567965 0.445488 0.473255 0.512672
0.555570 0.831470 -1.000000 0.567965 0.692067 0.445488 0.384445 0.497644
0.000000 0.000000 1.000000 0.567965 0.692067 0.445488 0.514312 0.000117
0.707107 0.707107 -1.000000 0.567965 0.692067 0.445488 0.428520 0.507106
0.382683 0.923880 -1.000000 0.422036 0.789573 0.445488 0.341368 0.484357
0.000000 0.000000 1.000000 0.422036 0.789573 0.445488 0.514312 0.000117
0.555570 0.831470 -1.000000 0.422036 0.789573 0.445488 0.384445 0.497644
0.000000 1.000000 -1.000000 0.000000 0.000000 -1.000000 0.295720 0.523328
0.195090 0.980785 -1.000000 0.000000 0.000000 -1.000000 0.337367 0.540579
-0.195089 0.980786 -1.000000 0.000000 0.000000 -1.000000 0.251507 0.514534
0.382683 0.923880 -1.000000 0.000000 0.000000 -1.000000 0.374850 0.565624
0.555570 0.831470 -1.000000 0.000000 0.000000 -1.000000 0.406726 0.597500
0.707107 0.707107 -1.000000 0.000000 0.000000 -1.000000 0.431770 0.634982
0.831470 0.555570 -1.000000 0.000000 0.000000 -1.000000 0.449021 0.676630
0.923880 0.382683 -1.000000 0.000000 0.000000 -1.000000 0.457816 0.720843
0.980785 0.195090 -1.000000 0.000000 0.000000 -1.000000 0.457816 0.765922
0.923880 -0.382683 -1.000000 0.000000 0.000000 -1.000000 0.406726 0.889266
0.555570 -0.831470 -1.000000 0.000000 0.000000 -1.000000 0.295720 0.963437
0.382683 -0.923880 -1.000000 0.000000 0.000000 -1.000000 0.251507 0.972232
1.000000 0.000000 -1.000000 0.000000 0.000000 -1.000000 0.449022 0.810136
0.831470 -0.555570 -1.000000 0.000000 0.000000 -1.000000 0.374850 0.921142
0.707107 -0.707107 -1.000000 0.000000 0.000000 -1.000000 0.337368 0.946186
-1.000000 0.000001 -1.000000 -0.000000 0.000000 -1.000000 0.008912 0.676630
-0.980785 0.195091 -1.000000 -0.000000 0.000000 -1.000000 0.026163 0.634982
-0.980785 -0.195089 -1.000000 -0.000000 0.000000 -1.000000 0.000117 0.720843
-0.923879 0.382684 -1.000000 -0.000000 0.000000 -1.000000 0.051208 0.597500
-0.195091 -0.980785 -1.000000 0.000000 0.000000 -1.000000 0.120566 0.946187
0.195090 -0.980785 -1.000000 0.000000 0.000000 -1.000000 0.206427 0.972232
-0.000000 -1.000000 -1.000000 0.000000 0.000000 -1.000000 0.162214 0.963438
-0.382684 -0.923879 -1.000000 0.000000 0.000000 -1.000000 0.083084 0.921142
0.980785 -0.195090 -1.000000 0.000000 0.000000 -1.000000 0.431770 0.851784
-0.555571 -0.831469 -1.000000 0.000000 0.000000 -1.000000 0.051208 0.889266
-0.382682 0.923880 -1.000000 0.000000 0.000000 -1.000000 0.206427 0.514534
-0.831470 -0.555570 -1.000000 0.000000 0.000000 -1.000000 0.008912 0.810136
-0.923880 -0.382683 -1.000000 0.000000 0.000000 -1.000000 0.000117 0.765923
-0.555569 0.831470 -1.000000 -0.000000 0.000000 -1.000000 0.162214 0.523328
-0.707106 0.707108 -1.000000 -0.000000 0.000000 -1.000000 0.120566 0.540579
-0.831469 0.555571 -1.000000 -0.000000 0.000000 -1.000000 0.083084 0.565624
-0.707107 -0.707106 -1.000000 -0.000000 -0.000000 -1.000000 0.026163 0.851784
3 0 1 2
3 3 4 5
3 6 7 8
3 9 10 11
3 12 13 14
3 15 16 17
3 18 19 20
3 21 22 23
3 24 25 26
3 27 28 29
3 30 31 32
3 33 34 35
3 36 37 38
3 39 40 41
3 42 43 44
3 45 46 47
3 48 49 50
3 51 52 53
3 54 55 56
3 57 58 59
3 60 61 62
3 63 64 65
3 66 67 68
3 69 70 71
3 72 73 74
3 75 76 77
3 78 79 80
3 81 82 83
3 84 85 86
3 87 88 89
3 90 91 92
3 93 94 95
3 96 97 98
3 97 99 98
3 99 100 98
3 100 101 98
3 101 102 98
3 102 103 98
3 103 104 98
3 98 104 105
3 106 107 98
3 104 108 105
3 105 109 98
3 109 110 98
3 111 112 113
3 110 106 98
3 112 114 113
3 115 116 117
3 107 116 118
3 108 119 105
3 118 120 114
3 121 118 114
3 121 98 118
3 113 122 123
3 116 115 118
3 113 114 120
3 122 113 120
3 124 121 125
3 98 107 118
3 126 125 114
3 127 122 120
3 125 121 114
