ply
format ascii 1.0
comment Created by Blender 2.68 (sub 0) - www.blender.org, source file: 'plane.blend'
element vertex 5
property float x
property float y
property float z
property float nx
property float ny
property float nz
property float s
property float t
element face 2
property list uchar uint vertex_indices
end_header
-1.000000 -1.000000 0.000000 0.000000 0.000000 1.000000 0.000000 0.000000
1.000000 -1.000000 0.000000 0.000000 0.000000 1.000000 1.000000 0.000000
1.000000 1.000000 0.000000 0.000000 0.000000 1.000000 1.000000 1.000000
-1.000000 1.000000 0.000000 0.000000 -0.000000 1.000000 0.000000 0.000000
-1.000000 -1.000000 0.000000 0.000000 -0.000000 1.000000 1.000000 0.000000
3 0 1 2
3 3 4 2
